HIERARCHY
ROOT Hips
{
	OFFSET -3.958830 18.904000 13.208200
	CHANNELS 6 Xposition Yposition Zposition Zrotation Yrotation Xrotation 
	JOINT LHipJoint
	{
		OFFSET 0.000000 0.000000 0.000000
		CHANNELS 3 Zrotation Yrotation Xrotation
		JOINT LeftUpLeg
		{
			OFFSET 1.800000 -1.400000 0.085000
			CHANNELS 3 Zrotation Yrotation Xrotation
			JOINT LeftLeg
			{
				OFFSET 2.215000 -6.000000 0.000000
				CHANNELS 3 Zrotation Yrotation Xrotation
				JOINT LeftFoot
				{
					OFFSET 2.500000 -6.900000 0.000000
					CHANNELS 3 Zrotation Yrotation Xrotation
					JOINT LeftToeBase
					{
						OFFSET 0.200000 -0.500000 1.950000
						CHANNELS 3 Zrotation Yrotation Xrotation
						End Site
						{
							OFFSET 0.000000 0.000000 0.000000
						}
					}
				}
			}
		}
	}
	JOINT RHipJoint
	{
		OFFSET 0.000000 0.000000 0.000000
		CHANNELS 3 Zrotation Yrotation Xrotation
		JOINT RightUpLeg
		{
			OFFSET -1.800000 -1.400000 0.085000
			CHANNELS 3 Zrotation Yrotation Xrotation
			JOINT RightLeg
			{
				OFFSET -2.215000 -6.000000 0.000000
				CHANNELS 3 Zrotation Yrotation Xrotation
				JOINT RightFoot
				{
					OFFSET -2.500000 -6.900000 0.000000
					CHANNELS 3 Zrotation Yrotation Xrotation
					JOINT RightToeBase
					{
						OFFSET -0.200000 -0.500000 1.950000
						CHANNELS 3 Zrotation Yrotation Xrotation
						End Site
						{
							OFFSET 0.000000 0.000000 0.000000
						}
					}
				}
			}
		}
	}
	JOINT LowerBack
	{
		OFFSET 0.000000 0.000000 0.000000
		CHANNELS 3 Zrotation Yrotation Xrotation
		JOINT Spine
		{
			OFFSET -0.087000 1.940000 -0.288900
			CHANNELS 3 Zrotation Yrotation Xrotation
			JOINT Spine1
			{
				OFFSET 0.000000 1.950000 0.060000
				CHANNELS 3 Zrotation Yrotation Xrotation
				JOINT Neck
				{
					OFFSET 0.000000 0.000000 0.000000
					CHANNELS 3 Zrotation Yrotation Xrotation
					JOINT Neck1
					{
						OFFSET 0.000000 1.600000 0.340000
						CHANNELS 3 Zrotation Yrotation Xrotation
						JOINT Head
						{
							OFFSET 0.000000 1.667000 -0.240000
							CHANNELS 3 Zrotation Yrotation Xrotation
							End Site
							{
								OFFSET 0.000000 0.000000 0.000000
							}
						}
					}
				}
				JOINT LeftShoulder
				{
					OFFSET 0.000000 0.000000 0.000000
					CHANNELS 3 Zrotation Yrotation Xrotation
					JOINT LeftArm
					{
						OFFSET 2.700000 1.550000 -0.730000
						CHANNELS 3 Zrotation Yrotation Xrotation
						JOINT LeftForeArm
						{
							OFFSET 5.450000 0.000000 0.000000
							CHANNELS 3 Zrotation Yrotation Xrotation
							JOINT LeftHand
							{
								OFFSET 3.450000 0.000000 0.000000
								CHANNELS 3 Zrotation Yrotation Xrotation
								JOINT LeftHandIndex1
								{
									OFFSET 0.750000 0.000000 0.000000
									CHANNELS 3 Zrotation Yrotation Xrotation
									End Site
									{
										OFFSET 0.000000 0.000000 0.000000
									}
								}
							}
						}
					}
				}
				JOINT RightShoulder
				{
					OFFSET 0.000000 0.000000 0.000000
					CHANNELS 3 Zrotation Yrotation Xrotation
					JOINT RightArm
					{
						OFFSET -2.700000 1.550000 -0.730000
						CHANNELS 3 Zrotation Yrotation Xrotation
						JOINT RightForeArm
						{
							OFFSET -5.450000 0.000000 0.000000
							CHANNELS 3 Zrotation Yrotation Xrotation
							JOINT RightHand
							{
								OFFSET -3.450000 0.000000 0.000000
								CHANNELS 3 Zrotation Yrotation Xrotation
								JOINT RightHandIndex1
								{
									OFFSET -0.750000 0.000000 0.000000
									CHANNELS 3 Zrotation Yrotation Xrotation
									End Site
									{
										OFFSET 0.000000 0.000000 0.000000
									}
								}
							}
						}
					}
				}
			}
		}
	}
}
MOTION
Frames: 6
Frame Time: 0.016667
0.408000 17.470360 -3.217930 -4.496193 34.114200 3.287068 -15.673216 14.516805 3.789538 1.941181 -1.125886 -2.751881 -9.538133 5.730105 4.744989 0.165217 4.031570 3.228384 -0.043510 -0.517440 0.320690 17.555311 -9.543484 3.916579 9.615331 4.192478 -26.877490 8.415520 -4.662466 14.546881 0.040778 -1.531218 3.984301 -0.498850 -0.185000 -0.108410 -2.782382 -5.847980 -8.857045 2.076270 -9.460996 16.150920 -0.205659 -7.149624 -32.155972 6.098820 -4.757955 -11.128418 -27.149639 16.020668 53.463154 13.795530 -0.816360 12.946600 -4.732671 21.816819 6.210990 -61.422174 13.140425 12.715194 164.577917 -36.078219 -136.058773 -3.040575 3.352953 0.751060 -0.260710 0.105620 -0.141850 0.376777 -23.842254 0.527290 50.858769 -36.719772 -14.395185 -6.002881 7.031492 0.444173 2.952944 -0.330498 -0.194980 -0.098150 -0.025980 -0.356210 
0.429550 17.491030 -3.193700 -5.509789 30.289918 3.406925 -15.704361 14.589087 3.783434 2.134056 -1.221859 -3.406115 -9.511969 5.772842 5.274422 0.162674 3.958746 3.215792 0.010050 -0.451970 0.386320 17.514003 -9.461751 4.014541 10.330803 4.481197 -25.851789 9.245587 -4.521302 13.028622 -0.005451 -1.449249 3.998851 -0.481080 -0.258790 -0.099090 -2.532478 -6.017815 -8.979572 2.570804 -8.121034 14.569145 1.024214 -5.027271 -33.051787 6.385569 -4.338477 -11.357035 -28.078923 17.578824 56.789850 13.634170 0.504800 12.173120 -4.992363 22.307307 6.559408 -61.561785 15.514203 12.845578 166.255869 -35.342234 -138.585778 -2.968846 3.377874 0.790030 -0.304030 0.173310 -0.152380 0.477980 -23.891748 0.594875 49.509477 -36.795641 -13.579164 -8.083608 6.614967 0.709917 3.023218 -0.350043 -0.163780 -0.117530 -0.060640 -0.374220 
0.455090 17.510070 -3.168880 -6.084166 27.862056 3.650107 -15.713928 14.633804 3.763043 2.201706 -1.275820 -3.910070 -9.189279 5.797524 6.067831 0.145102 3.874763 3.213059 0.075380 -0.379240 0.459680 17.484361 -9.482019 4.068654 10.397083 4.499468 -24.921299 10.063754 -4.433821 11.588604 -0.054668 -1.405871 3.998009 -0.452530 -0.327480 -0.094260 -2.400202 -6.006321 -9.069774 3.030444 -7.155089 13.004505 1.542242 -3.793905 -33.782597 6.628474 -3.949118 -11.578411 -28.488982 18.801750 60.090461 13.980830 1.351230 11.250580 -5.452698 22.819070 6.485314 -61.028920 17.760795 12.543908 167.405008 -34.036744 -138.966345 -2.907537 3.391971 0.829240 -0.345980 0.233810 -0.156010 0.624736 -24.041947 0.775649 48.162074 -37.113848 -12.958635 -8.939432 6.272100 0.835357 3.060400 -0.363905 -0.139360 -0.131700 -0.102940 -0.394540 
0.473280 17.513900 -3.157940 -5.965043 26.565805 3.887615 -15.723520 14.679639 3.724700 1.666453 -1.207093 -4.293038 -8.338259 5.785911 7.350255 0.110066 3.792222 3.215460 0.095360 -0.351940 0.481970 17.453202 -9.564924 4.075392 9.820211 4.322068 -24.234678 10.623028 -4.372100 10.437757 -0.072053 -1.409937 3.988300 -0.438140 -0.352200 -0.083330 -2.307001 -5.924207 -9.091060 2.609382 -6.565657 11.759397 1.988429 -3.361359 -33.661412 6.765559 -3.523507 -11.637796 -28.050882 19.274294 62.191823 13.832380 2.155580 11.192650 -5.587010 23.106764 6.327686 -61.015972 18.728963 12.375967 167.690683 -32.969991 -137.826573 -2.894757 3.404261 0.840230 -0.350540 0.255680 -0.164810 0.572901 -24.406505 0.824371 47.595708 -36.268519 -12.659413 -9.014194 5.221075 0.849967 3.073959 -0.346729 -0.129080 -0.143860 -0.108240 -0.405300 
0.490790 17.510560 -3.153570 -6.088118 25.519067 3.563212 -15.735841 14.752294 3.677975 1.582227 -1.189490 -4.077080 -7.418950 5.787714 8.505013 0.083312 3.794243 3.194414 0.112250 -0.333550 0.502110 17.434343 -9.581163 4.073682 9.707473 4.119770 -23.144547 10.717782 -4.196322 9.160581 -0.085889 -1.400979 3.979934 -0.423360 -0.372380 -0.074340 -2.232989 -5.991515 -9.074451 2.644201 -6.192395 11.059370 2.473118 -2.703272 -32.906245 6.580978 -3.054889 -11.836076 -27.939559 19.604568 63.719448 13.556750 2.775830 10.812890 -5.518649 22.611215 6.692410 -61.727919 18.227442 13.521519 168.501782 -32.879682 -139.704907 -2.882046 3.421534 0.852840 -0.356240 0.269850 -0.175800 0.928281 -24.207996 0.798592 47.349120 -35.012540 -12.274746 -8.946719 3.846355 0.913090 3.081676 -0.324131 -0.125670 -0.152010 -0.107020 -0.417860 
0.503860 17.515590 -3.158940 -5.582533 24.561445 2.752990 -15.762179 14.737700 3.697123 1.168091 -1.034618 -2.971844 -7.198597 5.786802 8.513173 0.075119 3.826900 3.162932 0.172270 -0.263330 0.568360 17.410838 -9.664193 3.987094 9.115429 3.640482 -21.636683 10.771119 -4.282381 9.038932 -0.141231 -1.486244 3.933799 -0.381940 -0.429230 -0.074290 -2.120439 -5.857740 -9.048243 1.384883 -5.674531 10.676889 3.313403 -1.861348 -31.135162 6.185442 -1.835868 -12.275725 -26.656067 19.343308 67.661991 12.367430 3.985600 9.511140 -6.563092 20.215050 7.535667 -62.268130 16.164900 15.181124 169.411440 -34.286825 -144.578132 -2.872799 3.391910 0.881980 -0.381720 0.312840 -0.182400 2.756562 -22.701797 0.837504 48.556430 -34.155391 -12.007326 -11.278565 3.367667 1.176324 3.103542 -0.371271 -0.114570 -0.150160 -0.135350 -0.442940 
